<?xml version="1.0" standalone="no"?>
<!DOCTYPE svg PUBLIC "-//W3C//DTD SVG 20010904//EN"
 "http://www.w3.org/TR/2001/REC-SVG-20010904/DTD/svg10.dtd">
<svg version="1.0" xmlns="http://www.w3.org/2000/svg"
 width="1024.000000pt" height="1024.000000pt" viewBox="0 0 1024.000000 1024.000000"
 preserveAspectRatio="xMidYMid meet">

<g transform="translate(0.000000,1024.000000) scale(0.100000,-0.100000)"
fill="#000000" stroke="none">
<path d="M2112 8790 c-84 -30 -146 -82 -208 -176 -31 -46 -59 -84 -62 -84 -16
0 -121 -94 -169 -152 -136 -160 -195 -382 -144 -536 14 -43 20 -96 24 -212 5
-172 17 -232 72 -345 39 -81 118 -182 158 -205 26 -14 29 -14 43 4 8 11 14 31
14 45 0 35 29 148 52 201 l20 45 31 -65 c20 -40 39 -66 51 -68 11 -3 33 11 56
33 61 60 70 50 89 -100 13 -103 45 -207 76 -242 l24 -28 19 45 c10 25 27 66
36 92 20 54 52 98 71 98 9 0 16 -17 20 -47 20 -172 46 -246 109 -319 l34 -39
21 48 c12 27 21 53 21 58 0 16 58 125 73 137 21 18 32 -1 46 -75 7 -34 25 -94
41 -133 21 -50 26 -72 17 -75 -7 -2 -156 -41 -332 -85 -176 -45 -352 -90 -392
-100 -115 -30 -166 -66 -197 -142 -28 -67 -41 -2 182 -908 66 -267 148 -601
182 -743 66 -271 80 -306 138 -340 71 -42 79 -41 454 49 193 47 352 83 353 82
2 -2 15 -48 30 -103 15 -55 29 -108 32 -117 15 -52 -80 20 -149 112 -22 29
-29 33 -45 24 -29 -18 -44 -97 -41 -222 2 -61 0 -112 -4 -112 -19 0 -111 87
-163 154 -72 95 -91 98 -118 16 -20 -57 -22 -98 -18 -384 2 -155 11 -187 76
-277 97 -131 328 -243 610 -296 117 -22 513 -25 625 -4 124 22 237 50 328 82
127 44 347 155 507 254 256 160 427 235 620 270 121 23 242 16 480 -28 265
-49 372 -60 590 -60 278 0 475 29 698 104 203 67 400 191 640 402 l68 60 58
-32 c32 -17 70 -31 84 -31 63 0 211 249 287 485 12 39 26 74 30 78 4 5 46 1
93 -8 100 -20 133 -15 149 23 6 15 13 83 15 152 6 142 -9 244 -57 395 -16 49
-26 93 -22 96 4 4 50 12 102 18 52 7 112 16 134 22 l38 10 -6 48 c-18 136
-154 410 -259 523 l-25 27 34 20 c19 12 68 36 109 55 45 21 75 41 75 50 0 8
-28 57 -62 108 -74 109 -219 260 -336 346 l-82 61 57 42 c127 92 124 89 117
112 -23 77 -252 242 -453 327 -56 23 -101 45 -101 48 0 3 30 36 66 73 81 85
81 97 -3 160 -129 96 -291 162 -473 193 l-75 12 -33 67 c-42 84 -127 164 -224
211 -114 56 -175 68 -337 71 l-144 3 -60 66 c-99 111 -235 195 -372 231 -119
30 -331 14 -440 -34 l-46 -20 -65 40 c-86 55 -167 79 -263 79 -134 0 -241 -40
-394 -147 l-78 -54 -50 10 c-102 22 -215 4 -307 -50 -28 -16 -40 -18 -70 -9
-54 15 -198 12 -289 -5 l-80 -15 -74 34 c-89 40 -196 66 -278 66 -52 0 -68 5
-113 34 -29 18 -85 50 -125 70 -58 29 -77 44 -98 80 -14 24 -59 76 -99 114
-119 113 -246 162 -421 162 -111 0 -184 -16 -302 -66 l-82 -35 -53 36 c-108
73 -272 96 -386 55z m933 -135 c174 -46 325 -203 325 -340 0 -73 -17 -121 -57
-166 -37 -41 -33 -46 28 -29 23 6 54 29 83 60 l47 50 62 -16 c34 -8 81 -26
103 -39 49 -29 124 -108 179 -191 21 -32 42 -62 45 -67 10 -12 -7 115 -20 148
-6 16 -22 44 -36 62 -13 17 -21 34 -17 36 11 7 168 -40 238 -71 133 -58 269
-153 403 -279 34 -32 62 -56 62 -54 0 9 -94 179 -123 221 -17 25 -51 67 -76
93 l-45 48 80 -6 c109 -10 180 -29 298 -82 55 -25 124 -54 153 -64 59 -23 155
-40 147 -27 -3 4 -10 8 -16 8 -5 0 -59 46 -119 102 -78 72 -106 104 -97 110 7
4 45 8 83 8 53 0 91 -8 155 -31 160 -57 227 -71 320 -66 47 2 105 11 130 20
24 9 45 15 47 14 1 -2 -26 -34 -60 -72 -41 -46 -52 -63 -32 -49 17 11 57 35
90 54 33 18 114 67 180 110 215 139 318 180 447 180 116 0 189 -35 313 -151
63 -60 140 -152 140 -169 0 -5 9 -16 20 -25 15 -11 16 -14 3 -9 -9 3 -29 21
-43 39 -32 43 -132 120 -187 145 -126 57 -324 -3 -530 -162 -217 -168 -218
-168 -340 -168 -83 0 -152 8 -228 25 -14 3 1 -8 32 -24 168 -86 226 -122 370
-234 111 -85 171 -122 250 -153 67 -27 227 -68 234 -61 3 2 -25 12 -62 21 -88
22 -149 54 -212 111 -45 41 -82 90 -82 109 0 3 27 -12 60 -33 76 -49 189 -97
293 -123 106 -27 200 -22 281 15 65 30 156 93 156 109 0 5 -14 -2 -30 -16 -42
-35 -93 -48 -170 -44 -58 3 -62 4 -39 15 66 29 128 112 129 171 0 26 12 28 31
6 11 -14 14 -13 29 6 16 22 17 22 81 6 148 -38 311 -141 482 -304 85 -82 89
-85 66 -43 -42 76 -145 177 -269 263 -18 12 -5 10 45 -8 38 -14 73 -28 78 -31
26 -16 -20 38 -140 165 l-132 139 49 6 c53 6 146 -5 195 -25 82 -32 188 -140
283 -285 23 -36 80 -99 133 -147 101 -90 197 -186 187 -186 -4 0 -26 8 -50 18
-39 17 -117 40 -193 57 -29 6 -28 5 13 -27 193 -153 351 -561 328 -848 -15
-188 -103 -328 -242 -385 -33 -14 -50 -25 -39 -25 37 0 207 30 227 41 11 6 22
8 25 5 22 -22 -133 -370 -233 -523 -67 -104 -193 -234 -284 -293 -80 -51 -77
-51 92 32 155 76 242 130 311 196 26 26 47 42 47 36 0 -29 -36 -128 -73 -198
-55 -106 -112 -181 -226 -299 -133 -137 -276 -243 -445 -327 -165 -83 -271
-118 -597 -199 -344 -85 -509 -144 -769 -277 -162 -83 -279 -156 -533 -338
-309 -220 -442 -300 -619 -370 -85 -33 -244 -72 -378 -91 -123 -17 -414 -20
-527 -4 -102 14 -276 72 -354 118 -66 38 -149 107 -149 122 0 5 16 9 35 9 20
0 53 8 75 19 l39 19 28 -30 c52 -56 97 -71 233 -81 212 -17 307 -13 370 13 47
20 74 24 180 24 142 2 201 19 284 82 26 19 71 42 101 50 93 24 155 62 245 151
54 54 107 96 145 115 100 51 201 133 405 333 107 105 301 288 430 406 435 400
574 562 875 1019 103 157 214 319 246 362 190 249 418 397 673 439 92 14 237
7 289 -14 20 -9 37 -15 37 -13 0 13 -36 85 -65 131 -82 128 -215 243 -361 312
-69 33 -89 38 -171 41 -121 6 -189 -15 -398 -122 -191 -98 -298 -135 -410
-143 -114 -8 -179 13 -466 153 -130 63 -273 128 -318 143 -46 16 -79 31 -75
34 7 4 113 25 249 50 11 2 -16 7 -59 12 -139 14 -223 2 -406 -59 -91 -30 -186
-57 -212 -61 l-47 -7 20 52 c11 29 19 69 17 89 l-3 36 -22 -40 c-29 -54 -68
-89 -133 -119 -67 -31 -89 -32 -173 -6 l-66 20 24 53 c20 43 42 147 31 147 -2
0 -17 -23 -34 -50 -38 -60 -92 -89 -167 -90 -38 0 -70 10 -137 41 l-87 42 25
37 c20 30 53 123 54 150 0 2 -13 -12 -30 -31 -36 -44 -85 -69 -137 -69 -44 0
-142 44 -191 85 l-33 28 20 21 c25 26 51 88 51 118 -1 23 -1 23 -23 -3 -33
-40 -96 -79 -126 -79 -32 0 -92 27 -166 74 l-56 36 36 42 c44 52 65 121 64
207 0 47 -3 59 -8 41 -13 -42 -40 -88 -74 -127 -35 -40 -112 -93 -136 -93 -8
0 -35 13 -60 29 -94 60 -195 76 -586 91 -263 10 -323 17 -470 52 -125 29 -172
52 -229 106 -27 26 -43 37 -37 25 6 -12 11 -38 11 -59 l0 -37 -82 5 c-95 5
-178 36 -203 75 -25 37 -21 114 9 178 37 80 141 185 184 185 10 0 28 -41 34
-75 2 -11 16 20 32 70 35 111 57 154 103 206 54 60 119 89 195 89 l63 0 -35
-21 c-74 -44 -128 -110 -160 -194 -8 -20 1 -16 53 26 75 60 134 90 194 97 l45
5 -7 -43 c-4 -24 -20 -81 -36 -128 -16 -47 -29 -90 -29 -94 0 -5 27 22 59 59
156 179 274 264 425 303 88 23 145 24 221 5z m2325 -341 c-138 -57 -191 -74
-233 -74 -35 0 -38 2 -27 16 42 50 168 92 280 93 l65 1 -85 -36z m855 -348
c85 -85 40 -254 -85 -319 -47 -25 -63 -28 -109 -24 -30 4 -81 19 -115 36 -65
32 -156 98 -156 112 0 10 170 139 182 139 4 0 2 -14 -4 -31 -22 -63 15 -181
66 -208 38 -21 73 -1 98 56 25 58 21 145 -11 199 -12 20 -21 38 -19 39 11 9
69 24 96 24 22 1 41 -7 57 -23z m-4451 -197 c27 -21 62 -82 77 -131 6 -21 -2
-56 -32 -144 -23 -63 -43 -140 -46 -171 -5 -49 -8 -54 -19 -38 -7 10 -24 48
-36 84 -31 89 -33 299 -5 374 10 26 22 47 26 47 5 0 20 -9 35 -21z m274 -19
c39 -24 43 -64 11 -137 -12 -26 -31 -77 -44 -113 l-23 -65 -12 30 c-31 81 -39
213 -16 270 17 40 36 44 84 15z m263 -46 c31 -28 24 -83 -28 -205 -48 -110
-48 -110 -60 -80 -34 82 -41 263 -12 298 16 19 73 11 100 -13z m363 -34 c21
-4 46 -16 55 -24 17 -17 14 -25 -68 -256 -17 -47 -37 -121 -44 -165 l-14 -80
-27 56 c-41 88 -67 203 -73 330 -6 114 -5 116 18 132 26 19 91 22 153 7z m435
-52 c58 -29 58 -45 0 -169 -23 -50 -54 -127 -69 -172 l-27 -81 -16 29 c-34 67
-58 172 -64 278 -5 96 -4 109 13 128 16 18 27 20 68 15 27 -3 70 -16 95 -28z
m328 -150 c96 -41 102 -68 47 -204 -20 -49 -43 -111 -51 -139 -12 -39 -17 -46
-24 -32 -42 74 -63 284 -36 350 17 41 23 43 64 25z m338 -217 c58 -33 60 -57
21 -178 -19 -60 -37 -125 -41 -145 -4 -21 -10 -38 -14 -38 -10 0 -47 111 -60
178 -14 67 -14 153 -1 187 9 23 14 26 38 20 15 -3 41 -14 57 -24z m4098 -122
c20 -17 50 -50 66 -73 34 -49 71 -151 71 -196 0 -26 -7 -18 -44 54 -25 47 -67
118 -95 160 -28 41 -51 78 -51 81 0 12 17 3 53 -26z m-3809 -60 c50 -12 99
-53 92 -77 -2 -9 -20 -69 -40 -132 -19 -63 -43 -150 -52 -192 -10 -43 -21 -75
-25 -70 -42 47 -86 385 -59 456 11 29 22 31 84 15z m405 -146 c20 -13 23 -20
18 -57 -6 -42 -63 -256 -71 -263 -5 -5 -43 102 -61 172 -8 32 -15 80 -15 106
0 38 4 48 23 57 26 13 72 6 106 -15z m788 5 c7 -6 13 -26 13 -44 0 -37 -39
-164 -50 -164 -11 0 -50 141 -50 182 0 20 6 39 13 42 16 6 58 -3 74 -16z
m-227 -20 c14 -15 20 -35 20 -64 0 -45 -46 -204 -58 -204 -9 0 -58 158 -68
217 -4 29 -2 48 6 58 19 23 76 19 100 -7z m-262 -34 c17 -11 22 -25 22 -57 0
-79 -41 -237 -61 -237 -13 0 -59 157 -66 222 -4 39 -2 62 7 73 16 20 69 19 98
-1z m670 -37 c2 -14 -7 -45 -20 -69 l-23 -43 -3 58 c-3 58 10 91 32 84 6 -2
12 -15 14 -30z m-2464 -18 c26 -23 44 -44 41 -47 -3 -3 -40 -16 -81 -28 l-76
-21 7 36 c12 69 26 101 44 101 10 0 39 -19 65 -41z m3884 -128 c-132 -77 -278
-207 -390 -346 -46 -57 -350 -515 -513 -772 -48 -75 -68 -88 -49 -32 8 21 26
96 41 166 25 120 27 144 27 388 0 265 -7 338 -49 477 -7 26 -10 48 -5 48 16 0
108 -109 129 -154 12 -24 32 -84 44 -132 l21 -89 23 95 c13 52 26 121 30 152
3 32 9 55 14 53 15 -10 52 -149 59 -224 4 -42 8 -70 9 -63 4 44 147 320 158
308 7 -7 -16 -136 -28 -159 -6 -10 -8 -21 -6 -24 3 -3 12 8 21 24 20 38 117
136 184 185 91 67 244 130 337 137 5 1 -20 -17 -57 -38z m-3565 -33 c46 -27
117 -86 195 -163 93 -90 122 -114 118 -95 -22 110 -22 110 51 0 97 -144 199
-238 358 -329 105 -60 306 -129 305 -104 -1 4 -35 34 -76 66 -41 32 -96 85
-122 118 -54 70 -131 197 -131 219 0 8 7 0 16 -18 24 -49 146 -176 219 -228
93 -66 231 -128 394 -174 166 -48 215 -71 247 -119 23 -33 31 -94 15 -117 -4
-6 -52 -42 -107 -79 -181 -124 -259 -187 -370 -299 -117 -118 -193 -215 -286
-367 -32 -52 -64 -101 -72 -110 -13 -15 -226 -71 -662 -174 -60 -14 -209 -50
-330 -79 -121 -30 -311 -75 -423 -102 l-202 -48 -28 21 c-34 26 -39 39 -107
323 -31 129 -106 433 -165 675 -217 881 -206 822 -170 867 10 14 32 30 47 36
15 6 267 74 558 151 292 77 550 147 575 155 67 21 75 20 153 -26z m4630 -85
c30 -66 31 -254 2 -325 l-20 -46 0 176 c0 98 -3 192 -7 210 -11 46 0 40 25
-15z m305 -114 c28 -55 33 -74 33 -141 1 -42 -4 -85 -10 -95 -9 -16 -10 -15
-11 8 0 48 -40 183 -75 258 -19 40 -35 75 -35 78 0 3 15 -6 33 -19 17 -14 47
-54 65 -89z m-43 -563 c46 -105 56 -214 29 -319 -32 -125 -39 -118 -40 41 0
128 -13 266 -31 326 -11 38 19 3 42 -48z m-278 -85 c8 -115 -31 -230 -111
-326 l-25 -30 20 53 c36 98 69 246 76 341 6 89 7 92 21 66 8 -15 16 -62 19
-104z m-2388 -95 c-2 -2 -71 -49 -154 -104 -197 -132 -301 -217 -388 -317 -80
-92 -83 -95 -301 -427 -85 -131 -160 -238 -165 -238 -6 0 -24 27 -41 61 -37
72 -61 77 -71 14 -4 -22 -22 -91 -42 -153 -44 -141 -58 -162 -109 -162 -32 0
-65 38 -74 87 -14 73 -56 48 -118 -69 -54 -101 -83 -138 -122 -154 -41 -17
-81 -9 -89 17 -12 36 -50 22 -105 -38 l-53 -57 26 50 c39 77 69 107 170 170
237 148 285 196 487 489 271 395 434 548 741 699 179 89 258 115 403 135 5 0
7 -1 5 -3z m84 -342 c40 -31 73 -59 75 -64 1 -4 -12 -27 -31 -51 -44 -58 -74
-60 -101 -5 -18 38 -36 176 -22 176 4 0 40 -25 79 -56z m-238 -204 l89 -89
-30 -38 c-17 -21 -47 -47 -67 -58 l-37 -20 -20 21 c-28 27 -55 165 -46 228 4
25 10 46 14 46 4 0 48 -40 97 -90z m2625 18 c0 -104 -34 -195 -108 -286 -41
-51 -51 -49 -23 6 23 44 111 305 111 327 0 8 5 15 10 15 6 0 10 -27 10 -62z
m-354 -123 c-10 -64 -76 -190 -135 -256 -59 -66 -122 -109 -222 -151 -72 -30
-106 -33 -50 -4 17 9 71 50 119 90 95 79 189 194 250 306 20 38 39 67 41 65 2
-2 0 -25 -3 -50z m-2588 -38 c16 -29 55 -83 86 -121 31 -38 56 -72 56 -76 0
-17 -67 -95 -93 -110 -39 -22 -58 -6 -84 71 -25 72 -31 203 -12 258 6 17 12
31 14 31 2 0 16 -24 33 -53z m-162 -413 c24 -23 44 -46 44 -51 0 -5 -14 -25
-31 -46 -34 -41 -83 -71 -104 -63 -29 11 -52 208 -32 280 l8 29 36 -53 c20
-30 56 -73 79 -96z m-1406 -43 c0 -10 -8 -29 -18 -41 -16 -19 -22 -21 -40 -11
-29 15 -47 50 -30 56 58 19 88 18 88 -4z m1114 -207 l48 -54 -19 -33 c-25 -41
-80 -79 -113 -75 -42 5 -60 56 -60 174 0 56 5 115 11 133 l11 31 37 -61 c20
-33 58 -85 85 -115z m2341 -10 c-45 -35 -228 -115 -316 -139 -155 -41 -282
-55 -491 -55 -105 0 -189 2 -187 4 2 3 117 21 254 40 138 20 293 45 345 55 99
20 379 96 388 106 3 3 10 5 16 5 6 0 2 -8 -9 -16z m-2785 -7 c0 -27 69 -155
114 -209 25 -31 46 -64 46 -73 0 -26 -53 -72 -95 -84 -74 -20 -125 40 -125
150 0 60 38 229 51 229 5 0 9 -6 9 -13z m-330 -164 c0 -29 62 -163 105 -228
22 -33 44 -66 48 -73 13 -19 -44 -69 -88 -78 -53 -10 -102 16 -122 64 -21 50
-12 185 17 270 21 60 40 81 40 45z m-938 -186 c48 -48 88 -92 88 -96 0 -16
-43 -63 -67 -72 -35 -13 -78 13 -104 62 -26 52 -49 157 -49 229 l0 55 22 -45
c12 -25 61 -85 110 -133z m336 -86 c13 -29 38 -69 55 -88 l31 -35 -23 -19
c-34 -27 -75 -24 -112 9 -44 39 -52 116 -19 188 22 48 22 48 32 24 6 -14 22
-49 36 -79z m352 -67 l33 -46 -31 -30 c-37 -38 -73 -33 -103 15 -24 38 -21 88
11 163 l21 49 18 -53 c10 -29 33 -73 51 -98z"/>
<path d="M2874 8516 c-23 -7 -68 -31 -100 -52 -65 -43 -241 -207 -227 -211 5
-2 43 12 84 31 82 37 241 90 304 100 l40 6 -45 -40 c-25 -22 -73 -59 -107 -81
-35 -23 -63 -42 -63 -43 0 -1 42 2 93 6 101 9 199 36 255 72 65 41 66 46 24
106 -71 102 -159 139 -258 106z"/>
<path d="M4855 7731 c-17 -8 -16 -10 11 -10 69 -2 237 -62 347 -125 42 -24 77
-41 77 -37 0 17 -113 120 -162 146 -47 26 -64 30 -153 32 -55 1 -109 -1 -120
-6z"/>
<path d="M6545 7442 c-56 -21 -144 -67 -105 -55 14 4 77 8 140 7 131 0 197
-16 300 -70 l65 -34 -59 55 c-111 103 -232 137 -341 97z"/>
<path d="M5876 7073 c68 -64 151 -117 216 -140 32 -11 52 -12 83 -4 37 9 175
69 175 76 0 1 -28 -4 -62 -12 -123 -29 -234 -4 -388 87 l-85 50 61 -57z"/>
<path d="M7251 6415 c-275 -71 -413 -203 -620 -590 -18 -33 -24 -49 -14 -35
243 337 449 522 692 622 81 34 65 34 -58 3z"/>
<path d="M7186 5718 c-104 -155 -255 -311 -476 -491 l-35 -28 35 19 c226 126
315 202 421 359 43 63 125 223 114 223 -2 0 -28 -37 -59 -82z"/>
<path d="M6409 5448 c-18 -24 -79 -93 -134 -153 -55 -61 -127 -141 -160 -179
-33 -38 -84 -89 -113 -112 -30 -24 -51 -44 -47 -44 3 0 52 31 108 69 188 128
278 227 350 384 20 42 34 77 33 77 -1 0 -18 -19 -37 -42z"/>
<path d="M6250 4779 c-81 -57 -125 -93 -89 -73 64 36 198 137 178 133 -2 0
-42 -27 -89 -60z"/>
<path d="M2702 6075 c-267 -68 -303 -81 -327 -119 -32 -49 -29 -86 25 -297 56
-220 66 -247 106 -278 37 -29 77 -27 234 13 74 19 173 41 220 51 169 33 212
51 235 95 23 44 19 82 -23 230 -22 74 -47 168 -57 208 -10 43 -28 86 -42 103
-28 33 -73 59 -100 58 -10 0 -132 -29 -271 -64z m310 -75 c9 -19 18 -48 20
-64 l3 -29 -120 -28 c-65 -15 -120 -27 -121 -26 -6 10 -34 141 -30 145 12 11
154 40 191 39 35 -2 42 -6 57 -37z m-313 -80 c12 -56 14 -76 6 -68 -3 2 -58
-8 -122 -22 l-118 -28 -12 27 c-30 65 -11 85 107 116 130 33 126 34 139 -25z
m375 -139 c5 -23 7 -43 5 -46 -5 -5 -242 -56 -244 -52 -4 4 -24 91 -22 93 5 5
233 51 242 49 6 -1 14 -20 19 -44z m-330 -32 c4 -23 5 -43 3 -45 -2 -2 -60
-17 -130 -32 l-126 -29 -6 39 c-4 22 -5 41 -3 42 3 3 233 63 249 65 4 1 9 -18
13 -40z m366 -118 c0 -48 -27 -67 -125 -90 -49 -12 -93 -21 -97 -21 -7 0 -32
80 -26 85 4 4 219 53 236 54 7 1 12 -11 12 -28z m-312 -48 c6 -27 13 -55 17
-64 5 -13 -14 -20 -106 -41 -127 -29 -149 -26 -174 22 -28 55 -21 61 115 96
69 18 128 33 131 33 3 1 11 -20 17 -46z"/>
<path d="M4310 5725 c-112 -30 -215 -58 -227 -64 -32 -15 -39 -55 -19 -117 24
-77 36 -80 159 -49 167 43 369 104 382 115 34 28 23 126 -18 155 -31 22 -51
19 -277 -40z"/>
<path d="M3616 5540 c-165 -41 -234 -63 -243 -76 -16 -21 -10 -71 12 -114 29
-56 25 -56 277 5 128 30 243 61 256 67 63 32 20 180 -52 177 -12 0 -124 -27
-250 -59z"/>
<path d="M2876 5344 c-170 -42 -308 -82 -318 -91 -33 -30 -18 -113 29 -155 18
-17 25 -16 128 11 61 15 207 52 325 81 118 29 220 57 226 62 28 22 20 113 -14
151 -8 9 -28 17 -46 16 -17 0 -166 -34 -330 -75z"/>
<path d="M3585 5104 c-49 -13 -135 -35 -190 -48 -566 -136 -702 -171 -717
-184 -27 -23 -24 -88 5 -107 22 -14 43 -10 293 50 148 36 334 82 414 101 286
69 355 87 368 97 19 15 15 81 -6 100 -24 22 -58 20 -167 -9z"/>
<path d="M1060 3095 c-141 -40 -216 -125 -256 -291 -23 -93 -24 -369 -1 -470
31 -140 102 -240 206 -287 37 -18 66 -22 151 -22 95 0 110 3 162 28 93 46 153
135 178 265 l8 43 -106 -3 -106 -3 -7 -34 c-17 -81 -92 -125 -171 -99 -83 26
-108 106 -108 338 0 272 46 364 173 347 57 -8 94 -49 103 -117 l7 -50 107 0
107 0 -9 55 c-21 136 -92 243 -189 285 -68 29 -176 35 -249 15z"/>
<path d="M2640 3096 c-76 -17 -129 -46 -179 -101 -84 -91 -113 -200 -113 -425
0 -172 15 -264 56 -352 34 -71 97 -135 165 -167 49 -23 69 -26 161 -26 120 0
168 16 239 81 96 86 131 189 139 403 6 192 -8 295 -53 388 -56 117 -141 184
-261 203 -72 12 -84 12 -154 -4z m176 -217 c59 -55 76 -127 75 -314 -1 -168
-6 -207 -35 -265 -31 -63 -79 -93 -135 -87 -24 3 -55 13 -70 24 -58 42 -91
159 -91 323 0 238 64 358 183 347 32 -3 56 -12 73 -28z"/>
<path d="M3460 3095 c-140 -40 -218 -126 -257 -282 -24 -96 -24 -390 0 -487
37 -149 86 -219 184 -267 121 -60 287 -50 385 24 51 38 113 154 124 230 l6 47
-106 0 -106 0 0 -29 c0 -15 -10 -43 -23 -62 -48 -72 -165 -73 -214 -1 -40 61
-56 202 -43 394 12 173 46 236 133 245 79 9 128 -34 143 -126 l7 -41 103 0
c118 0 113 -5 93 92 -25 118 -92 208 -184 249 -60 27 -176 33 -245 14z"/>
<path d="M4290 3099 c-157 -26 -263 -137 -304 -316 -21 -93 -22 -322 -1 -430
43 -224 184 -343 393 -331 245 14 362 188 362 531 -1 202 -26 319 -89 411 -72
104 -217 158 -361 135z m124 -203 c78 -32 106 -124 107 -341 0 -210 -26 -292
-108 -334 -36 -18 -97 -13 -134 12 -65 43 -89 130 -89 316 0 207 30 308 100
343 42 22 79 23 124 4z"/>
<path d="M1605 2566 l0 -526 108 0 107 0 0 174 0 174 48 -3 47 -3 71 -168 71
-169 115 -3 116 -3 -89 198 c-49 109 -85 199 -80 201 37 12 92 68 115 114 74
152 44 357 -68 455 -78 68 -111 76 -351 81 l-210 4 0 -526z m402 306 c51 -36
70 -153 35 -222 -24 -49 -71 -70 -154 -70 l-68 0 0 161 0 162 79 -5 c58 -3 86
-10 108 -26z"/>
<path d="M4840 2566 l0 -526 173 0 c254 0 363 30 441 121 81 95 110 199 110
399 1 219 -37 335 -139 428 -92 84 -133 95 -377 100 l-208 4 0 -526z m377 313
c82 -27 133 -144 133 -307 0 -228 -63 -320 -228 -332 l-72 -5 0 331 0 330 68
-3 c37 -2 82 -8 99 -14z"/>
<path d="M5680 2565 l0 -525 110 0 110 0 0 525 0 525 -110 0 -110 0 0 -525z"/>
<path d="M6060 2565 l0 -525 270 0 270 0 0 90 c0 50 0 93 0 98 0 4 -73 8 -162
9 l-163 2 -3 426 -2 425 -105 0 -105 0 0 -525z"/>
<path d="M6710 2565 l0 -525 288 0 287 0 -3 100 -3 100 -180 0 -179 0 0 105 0
105 150 0 150 0 0 100 0 100 -150 0 -150 0 0 120 0 120 173 2 172 3 3 98 3 97
-281 0 -280 0 0 -525z"/>
<path d="M7420 2565 l0 -525 110 0 109 0 -2 169 -2 168 116 6 c132 6 183 23
237 78 123 125 135 383 26 527 -32 41 -102 77 -179 91 -32 6 -139 11 -237 11
l-178 0 0 -525z m379 317 c19 -9 43 -29 54 -44 25 -34 33 -115 17 -173 -19
-67 -53 -88 -154 -93 l-81 -4 3 166 3 166 62 0 c39 0 75 -6 96 -18z"/>
<path d="M8317 3083 c-3 -5 -66 -234 -141 -511 -75 -277 -140 -510 -143 -518
-5 -13 11 -14 108 -12 l113 3 24 98 24 97 144 0 c79 0 144 -3 145 -7 0 -5 10
-48 23 -98 l22 -90 112 -3 c62 -1 112 -1 112 2 0 4 -63 236 -207 764 l-77 282
-127 0 c-70 0 -130 -3 -132 -7z m196 -520 l34 -143 -102 0 -102 0 51 205 51
205 17 -62 c10 -35 33 -127 51 -205z"/>
<path d="M8743 3078 c3 -7 66 -158 141 -336 l136 -322 0 -190 0 -190 104 0
105 0 3 198 3 197 59 135 c32 74 95 222 141 328 l83 192 -112 0 -112 0 -79
-212 c-43 -117 -80 -217 -83 -222 -3 -5 -42 90 -87 210 l-81 219 -113 3 c-89
2 -112 0 -108 -10z"/>
<path d="M2053 1583 c-19 -7 -16 -60 3 -67 9 -3 1390 -6 3070 -6 l3055 0 8 23
c5 12 5 30 -1 40 -8 16 -164 17 -3066 16 -1681 0 -3063 -3 -3069 -6z"/>
</g>
</svg>
